<svg xmlns="http://www.w3.org/2000/svg" viewBox="0 0 550 513.24"><defs><style>.cls-1{fill:#4b6584;}</style></defs><title>Asset 1</title><g id="Layer_2" data-name="Layer 2"><g id="Layer_1-2" data-name="Layer 1"><path class="cls-1" d="M401.94,445.82a92.26,92.26,0,0,1-91.65-92.08h0v-.13a92.25,92.25,0,0,1,91.65-92.08c18.64-.1,34.17-15,34.21-33.64a33.72,33.72,0,0,0-33.71-33.79,159.28,159.28,0,0,0-44.1,6.2,37.6,37.6,0,0,1-48.13-36h0c.05-1.56.08-3.13.08-4.7C310.29,72,239.31.6,151.83,0,133.11-.13,117.08,14.83,117,33.56a33.71,33.71,0,0,0,33.71,33.86,92.26,92.26,0,0,1,92.13,90.46c0,.62-.05,1.25-.05,1.88v3.35a92.26,92.26,0,0,1-91.46,88.61c-17.08.11-31.91,12.38-34.05,29.33a33.72,33.72,0,0,0,33.43,38.1A159.3,159.3,0,0,0,191.05,314c26.16-6.84,51.8,12.55,51.81,39.6v.26c.1,87.91,71.65,159.4,159.58,159.4a33.71,33.71,0,0,0,33.71-33.78C436.11,460.82,420.58,445.92,401.94,445.82Z"/><circle class="cls-1" cx="482" cy="256.24" r="29"/><circle class="cls-1" cx="502" cy="433.24" r="15"/><circle class="cls-1" cx="71" cy="59.24" r="27"/><circle class="cls-1" cx="21" cy="159.24" r="21"/><circle class="cls-1" cx="50" cy="235.24" r="15"/><circle class="cls-1" cx="529" cy="353.24" r="21"/></g></g></svg>